<?xml version="1.0" encoding="utf-8"?>
<!-- Generator: Adobe Illustrator 23.0.3, SVG Export Plug-In . SVG Version: 6.00 Build 0)  -->
<svg version="1.1" id="Слой_1" xmlns="http://www.w3.org/2000/svg" xmlns:xlink="http://www.w3.org/1999/xlink" x="0px" y="0px"
	 viewBox="0 0 58.3 58.3" style="enable-background:new 0 0 58.3 58.3;" xml:space="preserve">
<style type="text/css">
	.st0{fill:url(#SVGID_1_);}
</style>
<linearGradient id="SVGID_1_" gradientUnits="userSpaceOnUse" x1="28.6117" y1="40.168" x2="28.6117" y2="98.045" gradientTransform="matrix(1 0 0 1 0 -40)">
	<stop  offset="0" style="stop-color:#669AD3"/>
	<stop  offset="0.672" style="stop-color:#1E5DB6"/>
	<stop  offset="1" style="stop-color:#0044AA"/>
</linearGradient>
<path class="st0" d="M55.2,47.5C50.6,53.8,41.9,58,31.5,58C14.6,58,2.1,47.3,2.1,29.1c0-16,12-28.9,29.7-28.9c9.4,0,17.9,3.7,21.7,9
	l-6.7,8c-3.4-3.4-8.8-5-14.1-5c-10.2,0-17,6.6-17,16.5c0,10.5,7,17.3,18,17.3c5.3,0,11.1-1.8,14.8-6.3L55.2,47.5z"/>
</svg>
