<?xml version="1.0" encoding="utf-8"?>
<!-- Generator: Adobe Illustrator 23.0.3, SVG Export Plug-In . SVG Version: 6.00 Build 0)  -->
<svg version="1.1" id="Слой_1" xmlns="http://www.w3.org/2000/svg" xmlns:xlink="http://www.w3.org/1999/xlink" x="0px" y="0px"
	 viewBox="0 0 109.2 63.4" style="enable-background:new 0 0 109.2 63.4;" xml:space="preserve">
<style type="text/css">
	.st0{fill:url(#SVGID_1_);}
	.st1{fill:url(#SVGID_2_);}
	.st2{fill:url(#SVGID_3_);}
	.st3{fill:#0044AA;}
</style>
<linearGradient id="SVGID_1_" gradientUnits="userSpaceOnUse" x1="26.85" y1="59.582" x2="26.85" y2="1.705" gradientTransform="matrix(1 0 0 -1 0 60)">
	<stop  offset="0" style="stop-color:#669AD3"/>
	<stop  offset="0.672" style="stop-color:#1E5DB6"/>
	<stop  offset="1" style="stop-color:#0044AA"/>
</linearGradient>
<path class="st0" d="M53.4,47.7C48.8,54,40.1,58.3,29.7,58.3c-16.9,0-29.4-10.8-29.4-28.9c0-16,12-28.9,29.7-28.9
	c9.4,0,17.9,3.7,21.7,9l-6.7,8c-3.4-3.4-8.8-5-14.1-5c-10.2,0-17,6.6-17,16.5c0,10.5,7,17.3,18,17.3c5.3,0,11.1-1.8,14.8-6.3
	L53.4,47.7z"/>
<linearGradient id="SVGID_2_" gradientUnits="userSpaceOnUse" x1="55.4449" y1="34.139" x2="56.2109" y2="28.267" gradientTransform="matrix(1 0 0 -1 0 60)">
	<stop  offset="0" style="stop-color:#669AD3"/>
	<stop  offset="0.672" style="stop-color:#1E5DB6"/>
	<stop  offset="1" style="stop-color:#0044AA"/>
</linearGradient>
<path class="st1" d="M47.2,27h6.3v-6.3h4.7V27h6.4v4.7h-6.4v6.4h-4.7v-6.4h-6.3C47.2,31.7,47.2,27,47.2,27z"/>
<g>
	
		<linearGradient id="SVGID_3_" gradientUnits="userSpaceOnUse" x1="77.4449" y1="34.139" x2="78.2109" y2="28.267" gradientTransform="matrix(1 0 0 -1 0 60)">
		<stop  offset="0" style="stop-color:#669AD3"/>
		<stop  offset="0.672" style="stop-color:#1E5DB6"/>
		<stop  offset="1" style="stop-color:#0044AA"/>
	</linearGradient>
	<path class="st2" d="M69.2,27h6.3v-6.3h4.7V27h6.4v4.7h-6.4v6.4h-4.7v-6.4h-6.3V27z"/>
</g>
<g>
	<path class="st3" d="M56.5,43.5h3.6v0.6c0,0.4,0,0.7-0.1,1.1h0.1c0.7-1.1,2-1.9,3.7-1.9c3.9,0,5.9,2.9,5.9,7c0,4.2-2.3,7.4-6.4,7.4
		c-1.3,0-2.6-0.3-3.1-0.9v6.1h-3.6V43.5z M60.1,48.1v5.2c0.5,0.5,1.4,1,2.5,1c2,0,3.2-1.1,3.2-4c0-2.4-1.2-3.6-2.9-3.6
		C61.4,46.7,60.8,47.1,60.1,48.1z"/>
	<path class="st3" d="M71.9,43.5h3.8v0.5c0,0.4,0,0.8-0.1,1.3h0.1c0.5-1,1.2-2.1,2.9-2.1c0.6,0,1.1,0.3,1.5,0.5l-1.3,3.4
		c-0.4-0.2-0.7-0.3-1.2-0.3c-0.9,0-1.5,0.3-1.8,1.3v9.3h-3.8V43.5z"/>
	<path class="st3" d="M87.4,43.2c4.2,0,7.2,2.8,7.2,7.3c0,4.4-3,7.2-7.2,7.2c-4.1,0-7.1-2.8-7.1-7.2C80.2,46,83.3,43.2,87.4,43.2z
		 M87.4,54.4c2.1,0,3.3-1.3,3.3-3.9c0-2.6-1.4-3.9-3.3-3.9c-1.8,0-3.3,1.3-3.3,3.9C84.1,52.8,85.4,54.4,87.4,54.4z"/>
	<path class="st3" d="M109.2,56.3c0,4.6-2.5,6.8-6.5,6.8c-2.6,0-4.5-0.9-5.5-1.8l1.6-2.8c1.1,0.7,2.1,1.1,3.6,1.1
		c2.5,0,3.3-1.2,3.3-3l0-0.9h-0.1c-0.5,0.9-1.5,1.7-3.6,1.7c-3.4,0-5.9-2.5-5.9-6.9c0-4.5,2.6-7.1,6.3-7.1c1.6,0,2.7,0.6,3.2,1.2v-1
		h3.6V56.3z M105.6,52.3v-4.2c-0.5-0.7-1.5-1.3-2.6-1.3c-1.8,0-3.1,1.2-3.1,3.7c0,2.4,1.2,3.4,2.9,3.4
		C104.4,53.9,105.2,53.1,105.6,52.3z"/>
</g>
</svg>
